<svg xmlns="http://www.w3.org/2000/svg" xmlns:xlink="http://www.w3.org/1999/xlink" width="9" height="11" viewBox="0 0 9 11">
  <defs>
    <path id="https_24px-a" d="M7.35665761,3.6 L6.83118207,3.6 L6.83118207,2.57142857 C6.83118207,1.152 5.65411685,0 4.20380435,0 C2.75349185,0 1.57642663,1.152 1.57642663,2.57142857 L1.57642663,3.6 L1.05095109,3.6 C0.472927989,3.6 0,4.06285714 0,4.62857143 L0,9.77142857 C0,10.3371429 0.472927989,10.8 1.05095109,10.8 L7.35665761,10.8 C7.93468071,10.8 8.4076087,10.3371429 8.4076087,9.77142857 L8.4076087,4.62857143 C8.4076087,4.06285714 7.93468071,3.6 7.35665761,3.6 Z M2.62737772,2.57142857 C2.62737772,1.71771429 3.33151495,1.02857143 4.20380435,1.02857143 C5.07609375,1.02857143 5.78023098,1.71771429 5.78023098,2.57142857 L5.78023098,3.6 L2.62737772,3.6 L2.62737772,2.57142857 Z M7.35665761,9.77142857 L1.05095109,9.77142857 L1.05095109,4.62857143 L7.35665761,4.62857143 L7.35665761,9.77142857 Z M4.20380435,8.22857143 C4.78182745,8.22857143 5.25475543,7.76571429 5.25475543,7.2 C5.25475543,6.63428571 4.78182745,6.17142857 4.20380435,6.17142857 C3.62578125,6.17142857 3.15285326,6.63428571 3.15285326,7.2 C3.15285326,7.76571429 3.62578125,8.22857143 4.20380435,8.22857143 Z"/>
  </defs>
  <use fill="#5D5D60" xlink:href="#https_24px-a"/>
</svg>
