<svg xmlns="http://www.w3.org/2000/svg" xmlns:xlink="http://www.w3.org/1999/xlink" width="12" height="15" viewBox="0 0 12 15">
  <defs>
    <path id="timer_24px-a" d="M7.67495176,0 L3.83747588,0 L3.83747588,1.34984913 L7.67495176,1.34984913 L7.67495176,0 Z M5.11663451,8.77401937 L6.39579314,8.77401937 L6.39579314,4.72447197 L5.11663451,4.72447197 L5.11663451,8.77401937 Z M10.2524564,4.30601874 L11.160659,3.34762585 C10.8856399,3.00341432 10.5850376,2.67945053 10.2588522,2.39598221 L9.35064957,3.3543751 C8.35930163,2.51746864 7.11212197,2.01802446 5.75621382,2.01802446 C2.57750463,2.01802446 0,4.73797046 0,8.09234556 C0,11.4467207 2.57110884,14.1666667 5.75621382,14.1666667 C8.94131881,14.1666667 11.5124276,11.4467207 11.5124276,8.09234556 C11.5124276,6.66825472 11.039139,5.35215182 10.2524564,4.30601874 Z M5.75621382,12.8235668 C3.28104188,12.8235668 1.27915863,10.7110529 1.27915863,8.09909481 C1.27915863,5.48713673 3.28104188,3.37462284 5.75621382,3.37462284 C8.23138577,3.37462284 10.233269,5.48713673 10.233269,8.09909481 C10.233269,10.7110529 8.23138577,12.8235668 5.75621382,12.8235668 Z"/>
  </defs>
  <use fill="#272728" transform="translate(0 .417)" xlink:href="#timer_24px-a"/>
</svg>
